<mxfile host="app.diagrams.net" modified="2024-06-21T12:15:45.317Z" agent="Mozilla/5.0 (Macintosh; Intel Mac OS X 10.15; rv:128.0) Gecko/20100101 Firefox/128.0" etag="0QJ-3gTa_eeZoo6d_ub4" scale="1" border="0" version="24.6.0" type="device">
  <diagram name="Page-1" id="efa7a0a1-bf9b-a30e-e6df-94a7791c09e9">
    <mxGraphModel dx="1579" dy="752" grid="0" gridSize="10" guides="1" tooltips="1" connect="1" arrows="1" fold="1" page="1" pageScale="1" pageWidth="826" pageHeight="1169" background="#FFFFFF" math="0" shadow="0">
      <root>
        <mxCell id="0" />
        <mxCell id="1" parent="0" />
        <mxCell id="oMBeN4IvPGKr6_LYo95F-6" value="" style="text;html=1;align=left;verticalAlign=top;whiteSpace=wrap;rounded=1;fontFamily=Monospace;labelBackgroundColor=none;spacing=20;spacingLeft=5;spacingTop=0;fillColor=#E6E6E6;fontColor=#333333;strokeColor=none;arcSize=3;fontSize=16;fontStyle=0;shadow=0;shadowOffsetX=2;shadowOffsetY=2;shadowBlur=1;" parent="1" vertex="1">
          <mxGeometry x="58" y="57" width="381" height="105" as="geometry" />
        </mxCell>
        <mxCell id="m8_yUPAIpRcaYaqxqrlA-126" value="Status message" style="text;html=1;align=center;verticalAlign=middle;whiteSpace=wrap;rounded=0;fontFamily=Helvetica;fontSize=16;fontColor=default;labelBackgroundColor=none;shadow=0;shadowOffsetX=2;shadowOffsetY=2;shadowBlur=1;" parent="1" vertex="1">
          <mxGeometry x="261" y="6" width="137" height="30" as="geometry" />
        </mxCell>
        <mxCell id="m8_yUPAIpRcaYaqxqrlA-127" value="Status code" style="text;html=1;align=center;verticalAlign=middle;whiteSpace=wrap;rounded=0;fontFamily=Helvetica;fontSize=16;fontColor=default;labelBackgroundColor=none;shadow=0;shadowOffsetX=2;shadowOffsetY=2;shadowBlur=1;" parent="1" vertex="1">
          <mxGeometry x="165" y="6" width="94" height="30" as="geometry" />
        </mxCell>
        <mxCell id="m8_yUPAIpRcaYaqxqrlA-128" value="Protocol version" style="text;html=1;align=center;verticalAlign=middle;whiteSpace=wrap;rounded=0;fontFamily=Helvetica;fontSize=16;fontColor=default;labelBackgroundColor=none;shadow=0;shadowOffsetX=2;shadowOffsetY=2;shadowBlur=1;" parent="1" vertex="1">
          <mxGeometry x="28" y="6" width="118" height="30" as="geometry" />
        </mxCell>
        <mxCell id="m8_yUPAIpRcaYaqxqrlA-129" value="&lt;div style=&quot;font-size: 16px;&quot;&gt;Headers&lt;/div&gt;" style="text;html=1;align=center;verticalAlign=middle;whiteSpace=wrap;rounded=0;fontFamily=Helvetica;fontSize=16;fontColor=default;labelBackgroundColor=none;shadow=0;shadowOffsetX=2;shadowOffsetY=2;shadowBlur=1;" parent="1" vertex="1">
          <mxGeometry x="220" y="181" width="60" height="30" as="geometry" />
        </mxCell>
        <mxCell id="oMBeN4IvPGKr6_LYo95F-1" value="OK" style="text;html=1;align=center;verticalAlign=middle;rounded=1;fontFamily=Monospace;labelBackgroundColor=none;spacing=4;spacingLeft=0;spacingTop=0;fillColor=#F2FFFC;fontColor=#333333;strokeColor=none;arcSize=8;fontSize=16;fontStyle=0;shadow=0;shadowOffsetX=2;shadowOffsetY=2;shadowBlur=1;" parent="1" vertex="1">
          <mxGeometry x="225" y="62" width="36" height="21" as="geometry" />
        </mxCell>
        <mxCell id="oMBeN4IvPGKr6_LYo95F-2" value="200" style="text;html=1;align=center;verticalAlign=middle;rounded=1;fontFamily=Monospace;labelBackgroundColor=none;spacing=4;spacingLeft=0;spacingTop=0;fillColor=#F5F5FF;fontColor=#333333;strokeColor=none;arcSize=8;fontSize=16;fontStyle=0;shadow=0;shadowOffsetX=2;shadowOffsetY=2;shadowBlur=1;" parent="1" vertex="1">
          <mxGeometry x="167" y="62" width="42" height="21" as="geometry" />
        </mxCell>
        <mxCell id="oMBeN4IvPGKr6_LYo95F-3" value="&lt;p style=&quot;line-height: 100%;&quot;&gt;&lt;font style=&quot;font-size: 16px;&quot; color=&quot;#5d837e&quot;&gt;HTTP&lt;/font&gt;/&lt;font style=&quot;font-size: 16px;&quot; color=&quot;#cd5b92&quot;&gt;1.1&lt;/font&gt;&lt;/p&gt;" style="text;html=1;align=center;verticalAlign=middle;rounded=1;fontFamily=Monospace;labelBackgroundColor=none;spacing=4;spacingLeft=0;spacingTop=0;fillColor=#F5EBEF;fontColor=#333333;strokeColor=none;arcSize=8;fontSize=16;fontStyle=0;shadow=0;shadowOffsetX=2;shadowOffsetY=2;shadowBlur=1;" parent="1" vertex="1">
          <mxGeometry x="66" y="61" width="92" height="22" as="geometry" />
        </mxCell>
        <mxCell id="oMBeN4IvPGKr6_LYo95F-5" value="&lt;div style=&quot;font-size: 16px;&quot;&gt;&lt;font color=&quot;#5d837e&quot; style=&quot;font-size: 16px;&quot;&gt;date&lt;/font&gt;: Tue, 18 Jun 2024 10:03:55 GMT&lt;/div&gt;&lt;div style=&quot;font-size: 16px;&quot;&gt;&lt;font color=&quot;#5d837e&quot; style=&quot;font-size: 16px;&quot;&gt;cache-control: &lt;/font&gt;&lt;font color=&quot;#000000&quot; style=&quot;font-size: 16px;&quot;&gt;public, max-age=3600&lt;/font&gt;&lt;/div&gt;&lt;div style=&quot;font-size: 16px;&quot;&gt;&lt;font color=&quot;#5d837e&quot; style=&quot;font-size: 16px;&quot;&gt;content-type: &lt;/font&gt;&lt;font color=&quot;#000000&quot; style=&quot;font-size: 16px;&quot;&gt;text/html&lt;/font&gt;&lt;/div&gt;" style="text;html=1;align=left;verticalAlign=middle;whiteSpace=wrap;rounded=1;fontFamily=Monospace;labelBackgroundColor=none;spacing=4;spacingLeft=0;spacingTop=0;fillColor=#cfe3f5;fontColor=#333333;strokeColor=none;arcSize=3;fontSize=16;fontStyle=0;shadow=0;shadowOffsetX=2;shadowOffsetY=2;shadowBlur=1;" parent="1" vertex="1">
          <mxGeometry x="66" y="89" width="368" height="63" as="geometry" />
        </mxCell>
        <mxCell id="oMBeN4IvPGKr6_LYo95F-7" style="rounded=1;orthogonalLoop=1;jettySize=auto;html=1;exitX=0.5;exitY=1;exitDx=0;exitDy=0;fontFamily=Helvetica;fontSize=12;fontColor=default;labelBackgroundColor=none;endArrow=none;endFill=0;startArrow=classicThin;startFill=1;shadow=0;shadowOffsetX=2;shadowOffsetY=2;shadowBlur=1;entryX=0.5;entryY=0;entryDx=0;entryDy=0;" parent="1" source="oMBeN4IvPGKr6_LYo95F-5" target="m8_yUPAIpRcaYaqxqrlA-129" edge="1">
          <mxGeometry relative="1" as="geometry">
            <mxPoint x="99" y="275" as="sourcePoint" />
            <mxPoint x="38" y="41" as="targetPoint" />
          </mxGeometry>
        </mxCell>
        <mxCell id="m8_yUPAIpRcaYaqxqrlA-134" style="rounded=1;orthogonalLoop=1;jettySize=auto;html=1;exitX=0.75;exitY=0;exitDx=0;exitDy=0;fontFamily=Helvetica;fontSize=12;fontColor=default;labelBackgroundColor=none;endArrow=none;endFill=0;startArrow=classicThin;startFill=1;shadow=0;shadowOffsetX=2;shadowOffsetY=2;shadowBlur=1;" parent="1" source="oMBeN4IvPGKr6_LYo95F-1" target="m8_yUPAIpRcaYaqxqrlA-126" edge="1">
          <mxGeometry relative="1" as="geometry" />
        </mxCell>
        <mxCell id="m8_yUPAIpRcaYaqxqrlA-135" style="rounded=1;orthogonalLoop=1;jettySize=auto;html=1;exitX=0.5;exitY=0;exitDx=0;exitDy=0;fontFamily=Helvetica;fontSize=12;fontColor=default;labelBackgroundColor=none;endArrow=none;endFill=0;startArrow=classicThin;startFill=1;shadow=0;shadowOffsetX=2;shadowOffsetY=2;shadowBlur=1;" parent="1" source="oMBeN4IvPGKr6_LYo95F-2" target="m8_yUPAIpRcaYaqxqrlA-127" edge="1">
          <mxGeometry relative="1" as="geometry" />
        </mxCell>
        <mxCell id="m8_yUPAIpRcaYaqxqrlA-136" style="rounded=1;orthogonalLoop=1;jettySize=auto;html=1;exitX=0.25;exitY=0;exitDx=0;exitDy=0;fontFamily=Helvetica;fontSize=12;fontColor=default;labelBackgroundColor=none;endArrow=none;endFill=0;startArrow=classicThin;startFill=1;shadow=0;shadowOffsetX=2;shadowOffsetY=2;shadowBlur=1;" parent="1" source="oMBeN4IvPGKr6_LYo95F-3" target="m8_yUPAIpRcaYaqxqrlA-128" edge="1">
          <mxGeometry relative="1" as="geometry" />
        </mxCell>
      </root>
    </mxGraphModel>
  </diagram>
</mxfile>
